<?xml version="1.0" encoding="UTF-8" standalone="no"?>
<svg
   width="119.32346mm"
   height="41.544231mm"
   viewBox="0 0 119.32346 41.544233"
   version="1.1"
   id="svg8"
   xmlns:xlink="http://www.w3.org/1999/xlink"
   xmlns="http://www.w3.org/2000/svg"
   xmlns:svg="http://www.w3.org/2000/svg"
   xmlns:rdf="http://www.w3.org/1999/02/22-rdf-syntax-ns#"
   xmlns:cc="http://creativecommons.org/ns#"
   xmlns:dc="http://purl.org/dc/elements/1.1/">
  <g
     aria-label="haperon"
     id="text1722"
     style="font-size:19.575px;line-height:1.25;fill:#353535;stroke-width:0.489375">
    <path
       d="M 43.970566,15.197852 V 27.51825 c 0,0.487464 0.420556,0.927137 0.974927,0.927137 0.525695,0 0.95581,-0.420557 0.95581,-0.927137 v -4.865076 c 0,-1.739575 0.793323,-2.972571 2.389527,-2.972571 1.882947,0 2.389526,1.06095 2.389526,3.020362 v 0.01912 l -0.0096,4.779053 v 0.0096 c 0,0.50658 0.430115,0.927136 0.955811,0.927136 0.525695,0 0.95581,-0.420556 0.95581,-0.927136 v -0.0096 l 0.0096,-4.826843 v -0.08602 c 0,-2.848316 -1.299902,-4.826844 -4.301147,-4.826844 -0.869788,0 -1.92118,0.573487 -2.408643,1.605762 v -4.167334 c 0,-0.50658 -0.430115,-0.927136 -0.955811,-0.927136 -0.535254,0 -0.95581,0.420556 -0.95581,0.927136 z"
       style="font-weight:bold;font-family:Manjari;-inkscape-font-specification:'Manjari, Bold'"
       id="path16199" />
    <path
       d="m 59.454697,17.702076 c -2.972571,0 -5.237842,2.552014 -5.237842,5.390771 0,2.857874 2.332178,5.342981 5.218726,5.342981 1.280786,0 2.704944,-0.544812 3.374011,-1.682226 l 0.105139,0.764648 c 0,0.525696 0.324976,0.955811 0.850672,0.955811 0.525696,0 0.95581,-0.430115 0.95581,-0.955811 l 0.01912,-8.850806 v -0.01912 c 0,-0.525696 -0.430115,-0.955811 -0.955811,-0.955811 -0.525696,0 -0.850671,0.430115 -0.850671,0.955811 l -0.10514,0.917578 c -0.516137,-0.888904 -1.968969,-1.86383 -3.374011,-1.86383 z m 3.297547,5.371655 c 0,1.844714 -1.471949,3.450476 -3.307105,3.450476 -1.844714,0 -3.335779,-1.605762 -3.335779,-3.460034 0,-1.835156 1.452832,-3.450476 3.326221,-3.450476 1.902063,0 3.316663,1.596203 3.316663,3.460034 z"
       style="font-weight:bold;font-family:Manjari;-inkscape-font-specification:'Manjari, Bold'"
       id="path16201" />
    <path
       d="m 76.793101,23.092847 c 0,-2.819641 -2.131457,-5.314307 -5.008447,-5.314307 -1.185205,0 -2.494666,0.640393 -3.221082,1.682227 L 68.448875,18.68656 c -0.07646,-0.516137 -0.315418,-0.95581 -0.841114,-0.95581 -0.525695,0 -0.95581,0.430115 -0.95581,0.95581 v 12.205702 c 0,0.525695 0.430115,0.95581 0.95581,0.95581 0.525696,0 0.955811,-0.430115 0.955811,-0.95581 v -4.023963 c 0.821997,0.955811 1.825598,1.557971 3.154175,1.557971 1.299902,0 2.561572,-0.516137 3.488709,-1.424157 1.051391,-1.041834 1.586645,-2.465992 1.586645,-3.909266 z M 71.80377,19.690162 c 1.76825,0 3.087268,1.615319 3.087268,3.402685 0,1.777808 -1.328577,3.450476 -3.135059,3.450476 -1.825598,0 -3.1255,-1.567529 -3.1255,-3.402685 0,-0.888904 0.324975,-1.796924 0.898462,-2.427759 0.573486,-0.630835 1.443274,-1.022717 2.274829,-1.022717 z"
       style="font-weight:bold;font-family:Manjari;-inkscape-font-specification:'Manjari, Bold'"
       id="path16203" />
    <path
       d="m 82.833825,17.77854 c -2.790967,0 -4.989331,2.47555 -4.989331,5.247401 0,2.876989 2.21748,5.371655 5.151819,5.371655 1.81604,0 3.240198,-0.984485 4.033521,-2.141016 0.09558,-0.133813 0.172046,-0.382324 0.172046,-0.544812 0,-0.525696 -0.430115,-0.965368 -0.955811,-0.965368 -0.286743,0 -0.640393,0.191162 -0.793323,0.430114 -0.487463,0.7073 -1.395483,1.328577 -2.485107,1.328577 -1.529297,0 -2.790967,-1.26167 -3.115943,-2.638037 l 6.681116,-0.0096 c 0.468347,0 0.898462,-0.372766 0.955811,-0.841114 0.01912,-0.181604 0.02867,-0.363208 0.02867,-0.544812 0,-2.599804 -2.150574,-4.69303 -4.683472,-4.69303 z m 2.714502,4.167335 -5.629724,0.0096 c 0.372766,-1.21388 1.529297,-2.265271 2.915222,-2.265271 1.357251,0 2.465991,1.003601 2.714502,2.255713 z"
       style="font-weight:bold;font-family:Manjari;-inkscape-font-specification:'Manjari, Bold'"
       id="path16205" />
    <path
       d="m 95.374057,18.954187 c 0,-1.022717 -0.936694,-1.213879 -2.236596,-1.213879 -1.06095,0 -2.083668,0.965369 -2.332178,1.500623 l -0.09558,-0.688184 c -0.162488,-0.602161 -0.621277,-0.821997 -0.917579,-0.821997 -0.497021,0 -0.80288,0.410998 -0.80288,0.984485 v 8.803015 c 0,0.573487 0.363208,0.927137 0.95581,0.927137 0.592603,0 0.955811,-0.35365 0.955811,-0.917579 v -4.931982 c 0,-1.76825 0.55437,-3.173291 2.227038,-3.173291 0.554371,0 1.146973,0.420556 1.510181,0.382324 0.458789,-0.05735 0.735974,-0.334534 0.735974,-0.850672 z"
       style="font-weight:bold;font-family:Manjari;-inkscape-font-specification:'Manjari, Bold'"
       id="path16207" />
    <path
       d="m 100.85085,17.749866 c -2.876987,0 -5.23784,2.456433 -5.23784,5.352539 0,2.924781 2.370411,5.295191 5.23784,5.295191 2.88655,0 5.2474,-2.427759 5.2474,-5.295191 0,-2.905664 -2.32262,-5.352539 -5.2474,-5.352539 z m -3.307102,5.371656 c 0,-1.863831 1.414599,-3.440919 3.307102,-3.440919 1.87339,0 3.31667,1.56753 3.31667,3.421802 0,1.81604 -1.47195,3.364454 -3.30711,3.364454 -1.806481,0 -3.316662,-1.491065 -3.316662,-3.345337 z"
       style="font-weight:bold;font-family:Manjari;-inkscape-font-specification:'Manjari, Bold'"
       id="path16209" />
    <path
       d="m 109.38624,19.260047 -0.16249,-0.573487 c -0.14337,-0.516137 -0.40144,-0.95581 -0.92713,-0.95581 -0.5257,0 -0.822,0.430115 -0.822,0.95581 l 0.0191,8.7839 c 0,0.535254 0.42055,0.965368 0.95581,0.965368 0.52569,0 0.95581,-0.430114 0.95581,-0.95581 l -0.01,-3.813684 c -0.01,-2.446876 1.04183,-3.995289 2.92478,-3.995289 0.78377,0 1.29034,0.516138 1.53886,1.080066 0.21983,0.487464 0.26762,1.137415 0.26762,1.882947 v 4.826844 c 0,0.525695 0.43012,0.95581 0.95581,0.95581 0.5257,0 0.95581,-0.430115 0.95581,-0.95581 v -4.826844 c 0,-0.802881 -0.0191,-1.739575 -0.43011,-2.666711 -0.5257,-1.175647 -1.63444,-2.207923 -3.30711,-2.207923 -1.28078,0 -2.22703,0.831555 -2.91522,1.500623 z"
       style="font-weight:bold;font-family:Manjari;-inkscape-font-specification:'Manjari, Bold'"
       id="path16211" />
  </g>
  <defs
     id="defs2">
    <linearGradient
       xlink:href="#background"
       id="linearGradient8687"
       x1="107.51965"
       y1="273.0654"
       x2="58.38533"
       y2="222.48741"
       gradientUnits="userSpaceOnUse"
       spreadMethod="pad"
       gradientTransform="matrix(0.41544073,0,0,0.41544073,-12.463228,-122.55501)" />
    <linearGradient
       id="background">
      <stop
         style="stop-color:#4931d0;stop-opacity:1"
         offset="0"
         id="stop8681" />
      <stop
         style="stop-color:#5e9cfc;stop-opacity:1"
         offset="1"
         id="stop2197" />
    </linearGradient>
    <clipPath
       clipPathUnits="userSpaceOnUse"
       id="clipPath14194">
      <path
         style="fill:#ffffff;fill-opacity:1;stroke:#000000;stroke-width:0.264583px;stroke-linecap:butt;stroke-linejoin:miter;stroke-opacity:1"
         d="m 92.604167,232.83333 h 17.197913 v 18.52083 H 83.34375 V 246.0625 H 79.375 v -3.96875 h -3.96875 v -26.45834 z"
         id="path14196" />
    </clipPath>
    <clipPath
       clipPathUnits="userSpaceOnUse"
       id="clipPath45188">
      <circle
         style="mix-blend-mode:normal;fill:#53fa00;fill-opacity:1;fill-rule:evenodd;stroke-width:0.264583"
         id="circle45190"
         cx="80"
         cy="245"
         r="50" />
    </clipPath>
    <rect
       x="-80"
       y="1180"
       width="640"
       height="880"
       id="rect57998" />
  </defs>
  <metadata
     id="metadata5">
    <rdf:RDF>
      <cc:Work
         rdf:about="">
        <dc:format>image/svg+xml</dc:format>
        <dc:type
           rdf:resource="http://purl.org/dc/dcmitype/StillImage" />
      </cc:Work>
    </rdf:RDF>
  </metadata>
  <path
     id="path1190"
     style="fill:#353535;fill-opacity:1;stroke:none;stroke-width:0;stroke-linejoin:round;stroke-miterlimit:27.6;stroke-dasharray:none"
     d="m 115.77795,29.487606 c -0.17661,0.0013 -0.35511,0.01252 -0.53331,0.0217 H 114.14394 97.076761 71.689163 55.557332 40.675036 39.615152 a 20.772049,20.772049 0 0 1 -1.797823,3.130042 c 5.913332,-5.3e-4 11.826685,-5.3e-4 17.740003,-5.3e-4 v -5.29e-4 h 16.131831 25.387598 20.447849 l 1.79885,-3.129007 h -3.08508 c -0.15158,-0.01505 -0.3048,-0.02278 -0.46043,-0.0217 z" />
  <path
     id="path31-36-3"
     style="mix-blend-mode:normal;fill:#353535;fill-opacity:1;fill-rule:evenodd;stroke:none;stroke-width:0.109802;stroke-miterlimit:4;stroke-dasharray:none"
     d="M 20.771858,0 A 20.772048,20.772048 0 0 0 0,20.771858 20.772048,20.772048 0 0 0 9.0015172,37.877792 c 0.0053,-7.613677 -0.01241,-15.245242 0.01085,-22.844601 0.06594,-3.127457 2.7851998,-5.8817885 5.9029978,-6.0197885 0.124254,-0.0082 0.24877,-0.01285 0.373104,-0.01344 1.865021,-0.0087 3.717448,0.833497 4.896859,2.2887495 1.933717,2.249111 1.938085,5.859803 -0.02687,8.090979 -1.869505,2.342455 -5.471176,2.94849 -8.024316,1.39733 V 39.63892 a 20.772048,20.772048 0 0 0 8.637715,1.90531 20.772048,20.772048 0 0 0 17.047536,-8.904884 c -2.434992,1.99e-4 -4.870023,-2.43e-4 -7.304979,5.3e-4 -1.781836,-0.06696 -3.58318,0.141253 -5.35161,-0.114205 -2.961068,-0.487381 -5.268195,-3.32372 -5.158859,-6.321074 -0.02444,-3.214756 2.776712,-6.094218 5.982063,-6.195488 0.09064,-0.005 0.181695,-0.0079 0.272335,-0.0088 1.359641,-0.01399 2.710992,0.429962 3.811653,1.227315 1.05033,0.579916 1.03713,2.276981 -0.0801,2.769857 -0.768241,0.463344 -1.570474,-0.03906 -2.189014,-0.497644 -1.779877,-1.032076 -4.300609,0.189726 -4.612122,2.217953 -0.382398,1.768349 0.986748,3.580155 2.764172,3.791499 h 13.66377 A 20.772048,20.772048 0 0 0 41.544234,20.771858 20.772048,20.772048 0 0 0 20.771858,0 Z m -8.637715,39.638925 a 20.772048,20.772048 0 0 1 -0.313676,-0.14211 20.772049,20.772049 0 0 0 0.313676,0.153479 z m -0.313676,-0.14211 a 20.772049,20.772049 0 0 1 -0.557589,-0.27337 20.772048,20.772048 0 0 0 0.557589,0.27337 z m -0.557589,-0.27337 a 20.772048,20.772048 0 0 1 -1.201994,-0.663009 20.772049,20.772049 0 0 0 1.201994,0.663009 z m 4.113961,-27.100154 c -0.91774,-5.82e-4 -1.842603,0.391125 -2.445846,1.090889 -1.350536,1.432036 -0.899824,4.007243 0.853178,4.897376 1.706375,1.022942 4.168341,-0.01148 4.617289,-1.955436 0.574533,-1.856827 -0.914046,-3.919937 -2.84117,-4.027661 -0.06102,-0.0036 -0.122271,-0.0051 -0.183451,-0.0052 z m -6.2719688,25.82633 a 20.772048,20.772048 0 0 0 0.807186,0.519348 20.772049,20.772049 0 0 1 -0.807186,-0.519348 z" />
</svg>
