<?xml version="1.0" encoding="UTF-8" standalone="no"?>
<svg
   width="41.544098mm"
   height="41.544098mm"
   viewBox="0 0 41.544096 41.544098"
   version="1.1"
   id="svg8"
   xmlns:xlink="http://www.w3.org/1999/xlink"
   xmlns="http://www.w3.org/2000/svg"
   xmlns:svg="http://www.w3.org/2000/svg"
   xmlns:rdf="http://www.w3.org/1999/02/22-rdf-syntax-ns#"
   xmlns:cc="http://creativecommons.org/ns#"
   xmlns:dc="http://purl.org/dc/elements/1.1/">
  <defs
     id="defs2">
    <linearGradient
       xlink:href="#background"
       id="linearGradient8687"
       x1="108.52173"
       y1="279.57141"
       x2="58.38533"
       y2="222.48741"
       gradientUnits="userSpaceOnUse"
       spreadMethod="pad"
       gradientTransform="matrix(0.41544073,0,0,0.41544073,-12.463227,-122.55501)" />
    <linearGradient
       id="background">
      <stop
         style="stop-color:#414141;stop-opacity:0.19215687"
         offset="0"
         id="stop8681" />
      <stop
         style="stop-color:#535353;stop-opacity:0.03"
         offset="1"
         id="stop2197" />
    </linearGradient>
    <clipPath
       clipPathUnits="userSpaceOnUse"
       id="clipPath14194">
      <path
         style="fill:#ffffff;fill-opacity:1;stroke:#000000;stroke-width:0.264583px;stroke-linecap:butt;stroke-linejoin:miter;stroke-opacity:1"
         d="m 92.604167,232.83333 h 17.197913 v 18.52083 H 83.34375 V 246.0625 H 79.375 v -3.96875 h -3.96875 v -26.45834 z"
         id="path14196" />
    </clipPath>
    <clipPath
       clipPathUnits="userSpaceOnUse"
       id="clipPath45188">
      <circle
         style="mix-blend-mode:normal;fill:#53fa00;fill-opacity:1;fill-rule:evenodd;stroke-width:0.264583"
         id="circle45190"
         cx="80"
         cy="245"
         r="50" />
    </clipPath>
    <rect
       x="-80"
       y="1180"
       width="640"
       height="880"
       id="rect57998" />
  </defs>
  <metadata
     id="metadata5">
    <rdf:RDF>
      <cc:Work
         rdf:about="">
        <dc:format>image/svg+xml</dc:format>
        <dc:type
           rdf:resource="http://purl.org/dc/dcmitype/StillImage" />
      </cc:Work>
    </rdf:RDF>
  </metadata>
  <path
     id="path31"
     style="mix-blend-mode:normal;fill:#353535;fill-opacity:1;fill-rule:evenodd;stroke-width:0.415;stroke-miterlimit:4;stroke-dasharray:none;stroke:none"
     d="M 78.507812 0 A 78.50853 78.50853 0 0 0 0 78.507812 A 78.50853 78.50853 0 0 0 34.021484 143.16016 C 34.041656 114.38406 33.974572 85.54035 34.0625 56.818359 C 34.311718 44.99805 44.589243 34.587982 56.373047 34.066406 C 56.842668 34.035354 57.313279 34.017825 57.783203 34.015625 C 64.832101 33.98274 71.833399 37.165854 76.291016 42.666016 C 83.599552 51.166593 83.616062 64.813299 76.189453 73.246094 C 69.123607 82.099467 55.510991 84.389996 45.861328 78.527344 L 45.861328 149.85938 A 78.50853 78.50853 0 0 0 78.507812 157.01758 A 78.50853 78.50853 0 0 0 157.01758 78.507812 A 78.50853 78.50853 0 0 0 78.507812 0 z M 45.861328 149.85938 A 78.508531 78.508531 0 0 1 43.292969 148.62891 A 78.50853 78.50853 0 0 0 45.861328 149.85938 z M 43.292969 148.62891 A 78.50853 78.50853 0 0 1 42.902344 148.42773 A 78.508531 78.508531 0 0 0 43.292969 148.62891 z M 42.902344 148.42773 A 78.508531 78.508531 0 0 1 40.675781 147.25781 A 78.50853 78.50853 0 0 0 42.902344 148.42773 z M 40.675781 147.25781 A 78.50853 78.50853 0 0 1 38.025391 145.74023 A 78.508531 78.508531 0 0 0 40.675781 147.25781 z M 58.117188 45.820312 C 54.648564 45.818133 51.15302 47.298582 48.873047 49.943359 C 43.768659 55.355779 45.472137 65.088843 52.097656 68.453125 C 58.546948 72.319366 67.852017 68.409724 69.548828 61.0625 C 71.720291 54.044571 66.094165 46.246993 58.810547 45.839844 C 58.579905 45.826237 58.348418 45.82046 58.117188 45.820312 z M 99.244141 75.591797 C 104.38294 75.538921 109.4904 77.21687 113.65039 80.230469 C 117.62014 82.422277 117.57025 88.83638 113.34766 90.699219 C 110.44407 92.45044 107.41201 90.551605 105.07422 88.818359 C 98.347132 84.9176 88.81995 89.535432 87.642578 97.201172 C 86.197294 103.8847 91.372021 110.73235 98.089844 111.53125 L 149.69727 111.53125 A 78.508532 78.508532 0 0 1 142.91211 123.36133 C 133.7181 123.36233 124.52394 123.36028 115.33008 123.36328 C 108.59558 123.11023 101.78735 123.89715 95.103516 122.93164 C 83.912081 121.08962 75.192234 110.3696 75.605469 99.041016 C 75.513105 86.890757 86.100131 76.007753 98.214844 75.625 C 98.557431 75.606102 98.901564 75.595297 99.244141 75.591797 z M 34.412109 143.43164 A 78.50853 78.50853 0 0 0 37.462891 145.39453 A 78.508531 78.508531 0 0 1 34.412109 143.43164 z "
     transform="scale(0.26458333)" />
</svg>
